<svg width="10" height="10" viewBox="0 0 10 10" fill="none" xmlns="http://www.w3.org/2000/svg">
<path d="M4.2 4.52501C4.22083 4.38751 4.26667 4.26668 4.325 4.16251C4.38333 4.05834 4.46667 3.97084 4.57083 3.90418C4.67083 3.84168 4.79583 3.81251 4.95 3.80834C5.04583 3.81251 5.13333 3.82918 5.2125 3.86251C5.29583 3.90001 5.37083 3.95001 5.42917 4.01251C5.4875 4.07501 5.53333 4.15001 5.57083 4.23334C5.60833 4.31668 5.625 4.40834 5.62917 4.50001H6.375C6.36667 4.30418 6.32917 4.12501 6.25833 3.96251C6.1875 3.80001 6.09167 3.65834 5.96667 3.54168C5.84167 3.42501 5.69167 3.33334 5.51667 3.26668C5.34167 3.20001 5.15 3.17084 4.9375 3.17084C4.66667 3.17084 4.42917 3.21668 4.22917 3.31251C4.02917 3.40834 3.8625 3.53334 3.72917 3.69584C3.59583 3.85834 3.49583 4.04584 3.43333 4.26251C3.37083 4.47918 3.33333 4.70418 3.33333 4.94584V5.05834C3.33333 5.30001 3.36667 5.52501 3.42917 5.74168C3.49167 5.95834 3.59167 6.14584 3.725 6.30418C3.85833 6.46251 4.025 6.59168 4.225 6.68334C4.425 6.77501 4.6625 6.82501 4.93333 6.82501C5.12917 6.82501 5.3125 6.79168 5.48333 6.72918C5.65417 6.66668 5.80417 6.57918 5.93333 6.46668C6.0625 6.35418 6.16667 6.22501 6.24167 6.07501C6.31667 5.92501 6.3625 5.76668 6.36667 5.59584H5.62083C5.61667 5.68334 5.59583 5.76251 5.55833 5.83751C5.52083 5.91251 5.47083 5.97501 5.40833 6.02918C5.34583 6.08334 5.275 6.12501 5.19167 6.15418C5.1125 6.18334 5.02917 6.19168 4.94167 6.19584C4.79167 6.19168 4.66667 6.16251 4.57083 6.10001C4.46667 6.03334 4.38333 5.94584 4.325 5.84168C4.26667 5.73751 4.22083 5.61251 4.2 5.47501C4.17917 5.33751 4.16667 5.19584 4.16667 5.05834V4.94584C4.16667 4.80001 4.17917 4.66251 4.2 4.52501V4.52501ZM5 0.833344C2.7 0.833344 0.833333 2.70001 0.833333 5.00001C0.833333 7.30001 2.7 9.16668 5 9.16668C7.3 9.16668 9.16667 7.30001 9.16667 5.00001C9.16667 2.70001 7.3 0.833344 5 0.833344ZM5 8.33334C3.1625 8.33334 1.66667 6.83751 1.66667 5.00001C1.66667 3.16251 3.1625 1.66668 5 1.66668C6.8375 1.66668 8.33333 3.16251 8.33333 5.00001C8.33333 6.83751 6.8375 8.33334 5 8.33334Z" fill="white"/>
</svg>
